<svg xmlns="http://www.w3.org/2000/svg" viewBox="0 0 310 32">
  <defs>
    <linearGradient id="g" x1="0" y1="0" x2="0" y2="1">
      <stop offset="0%" stop-color="#e879f9"/>
      <stop offset="50%" stop-color="#a855f7"/>
      <stop offset="100%" stop-color="#7c3aed"/>
    </linearGradient>
    <linearGradient id="shimmer" gradientUnits="userSpaceOnUse" x1="-200" y1="0" x2="0" y2="0">
      <stop offset="0%" stop-color="#1f2937"/>
      <stop offset="40%" stop-color="#1f2937"/>
      <stop offset="50%" stop-color="#a855f7"/>
      <stop offset="60%" stop-color="#1f2937"/>
      <stop offset="100%" stop-color="#1f2937"/>
      <animate attributeName="x1" values="-200;600" dur="3s" repeatCount="indefinite"/>
      <animate attributeName="x2" values="0;800" dur="3s" repeatCount="indefinite"/>
    </linearGradient>
  </defs>
  <text x="0" y="22" font-family="Massilia, 'DM Sans', 'Outfit', -apple-system, BlinkMacSystemFont, 'Segoe UI', Helvetica, Arial, sans-serif" font-size="18" font-weight="500" fill="url(#shimmer)">Software Architect</text>
  <g transform="translate(182, 0) scale(0.8)">
    <path d="M 22.675 29.122 C 22.675 30.994 21.18 32.516 19.317 32.557 C 19.258 32.554 19.198 32.552 19.136 32.552 C 19.112 32.552 19.088 32.552 19.064 32.554 L 19.06 32.554 C 16.936 32.592 15.226 34.314 15.2 36.441 C 15.199 36.46 15.199 36.474 15.199 36.491 C 15.199 36.536 15.199 36.584 15.202 36.631 C 15.202 36.689 15.199 36.748 15.195 36.806 C 15.181 37.034 15.144 37.259 15.085 37.479 C 15.069 37.534 15.054 37.587 15.037 37.641 C 15.002 37.746 14.963 37.849 14.918 37.951 C 14.895 38.003 14.873 38.053 14.849 38.101 C 14.825 38.149 14.799 38.199 14.773 38.246 C 14.773 38.248 14.771 38.251 14.768 38.253 C 14.742 38.299 14.716 38.344 14.687 38.389 C 14.659 38.435 14.628 38.48 14.597 38.527 C 14.566 38.572 14.535 38.615 14.502 38.658 C 14.463 38.713 14.42 38.765 14.375 38.816 C 14.349 38.847 14.321 38.877 14.294 38.906 C 14.29 38.911 14.285 38.916 14.28 38.922 C 14.247 38.958 14.213 38.994 14.178 39.027 C 14.14 39.065 14.101 39.101 14.059 39.139 C 14.02 39.175 13.978 39.209 13.937 39.244 C 13.933 39.247 13.928 39.251 13.925 39.254 C 13.887 39.285 13.847 39.316 13.806 39.346 C 13.763 39.378 13.718 39.411 13.671 39.44 C 13.585 39.499 13.496 39.552 13.404 39.602 C 13.389 39.611 13.375 39.618 13.359 39.625 C 13.322 39.647 13.282 39.666 13.242 39.683 C 12.944 39.827 12.622 39.926 12.284 39.978 C 12.112 40.004 11.939 40.016 11.765 40.016 C 11.591 40.016 11.418 40.004 11.246 39.978 C 11.131 39.959 11.019 39.937 10.906 39.909 C 10.851 39.894 10.796 39.88 10.743 39.863 C 10.693 39.847 10.643 39.832 10.594 39.813 C 10.543 39.794 10.489 39.775 10.439 39.752 C 10.388 39.73 10.338 39.708 10.288 39.683 C 10.258 39.67 10.229 39.656 10.2 39.64 C 10.174 39.628 10.15 39.616 10.126 39.602 C 10.122 39.601 10.117 39.597 10.114 39.597 C 9.93 39.496 9.757 39.379 9.595 39.247 C 9.467 39.144 9.348 39.032 9.238 38.913 C 9.2 38.873 9.165 38.832 9.129 38.791 C 9.06 38.709 8.998 38.627 8.938 38.541 C 8.936 38.535 8.932 38.529 8.928 38.525 C 8.9 38.484 8.872 38.441 8.847 38.397 C 8.845 38.396 8.843 38.392 8.841 38.391 C 8.784 38.299 8.731 38.203 8.683 38.104 C 8.659 38.056 8.635 38.006 8.614 37.954 C 8.591 37.904 8.571 37.853 8.552 37.803 C 8.535 37.756 8.517 37.711 8.504 37.665 C 8.5 37.656 8.498 37.646 8.495 37.639 C 8.479 37.587 8.464 37.537 8.45 37.484 C 8.435 37.43 8.422 37.375 8.41 37.32 C 8.398 37.265 8.388 37.21 8.379 37.153 C 8.371 37.098 8.362 37.041 8.355 36.984 C 8.348 36.927 8.343 36.868 8.34 36.812 C 8.336 36.753 8.335 36.694 8.333 36.636 C 8.336 36.589 8.336 36.541 8.336 36.496 L 8.336 36.424 C 8.298 34.307 6.592 32.597 4.475 32.559 L 4.472 32.559 C 4.447 32.557 4.423 32.557 4.399 32.557 C 4.341 32.557 4.287 32.559 4.23 32.562 L 4.173 32.562 C 4.146 32.562 4.116 32.562 4.089 32.559 C 4.053 32.557 4.016 32.554 3.98 32.55 C 3.961 32.55 3.941 32.549 3.922 32.545 C 3.891 32.543 3.86 32.538 3.829 32.533 C 3.799 32.53 3.77 32.524 3.741 32.519 C 3.708 32.514 3.675 32.509 3.642 32.5 C 3.623 32.499 3.604 32.495 3.587 32.49 C 3.556 32.485 3.527 32.478 3.498 32.469 C 3.467 32.462 3.436 32.454 3.403 32.445 C 3.372 32.437 3.342 32.43 3.313 32.419 C 3.298 32.414 3.282 32.411 3.268 32.406 C 3.218 32.39 3.168 32.373 3.12 32.354 C 3.068 32.335 3.015 32.314 2.965 32.292 C 2.924 32.275 2.882 32.256 2.841 32.237 C 2.824 32.23 2.808 32.221 2.793 32.214 C 2.767 32.202 2.741 32.19 2.717 32.176 C 2.689 32.162 2.662 32.149 2.636 32.131 C 2.549 32.083 2.465 32.032 2.382 31.976 C 2.341 31.949 2.3 31.919 2.26 31.888 C 2.255 31.885 2.248 31.88 2.241 31.876 C 2.204 31.849 2.168 31.821 2.132 31.792 C 2.124 31.787 2.117 31.78 2.11 31.773 C 2.072 31.742 2.036 31.711 2.001 31.678 C 1.998 31.674 1.994 31.671 1.989 31.668 C 1.955 31.637 1.922 31.606 1.891 31.573 C 1.882 31.564 1.874 31.557 1.867 31.549 C 1.839 31.521 1.812 31.494 1.786 31.466 C 1.776 31.454 1.763 31.442 1.753 31.43 C 1.727 31.402 1.703 31.375 1.681 31.345 C 1.634 31.29 1.589 31.233 1.546 31.176 C 1.524 31.149 1.505 31.118 1.484 31.089 C 1.443 31.03 1.403 30.97 1.365 30.908 C 1.31 30.813 1.257 30.716 1.208 30.616 C 1.165 30.527 1.126 30.435 1.091 30.342 C 1.084 30.325 1.079 30.308 1.072 30.292 C 1.017 30.137 0.973 29.979 0.939 29.818 C 0.871 29.477 0.853 29.127 0.888 28.78 C 0.91 28.553 0.957 28.33 1.02 28.118 C 1.069 27.958 1.129 27.803 1.2 27.655 C 1.22 27.613 1.241 27.574 1.262 27.532 C 1.289 27.475 1.32 27.42 1.353 27.367 C 1.408 27.272 1.469 27.182 1.534 27.095 C 1.565 27.051 1.6 27.008 1.634 26.967 C 1.669 26.926 1.703 26.882 1.739 26.843 C 1.774 26.803 1.812 26.765 1.848 26.727 C 1.848 26.727 1.848 26.724 1.851 26.722 C 1.877 26.696 1.903 26.67 1.931 26.645 C 1.962 26.615 1.993 26.586 2.025 26.557 C 2.053 26.531 2.082 26.505 2.112 26.483 C 2.122 26.474 2.132 26.465 2.143 26.458 C 2.172 26.434 2.201 26.41 2.231 26.388 C 2.269 26.36 2.306 26.331 2.346 26.303 C 2.387 26.276 2.431 26.248 2.472 26.221 C 2.477 26.217 2.482 26.214 2.487 26.212 C 2.518 26.193 2.55 26.174 2.579 26.157 C 2.599 26.143 2.62 26.131 2.643 26.121 C 2.679 26.098 2.717 26.079 2.755 26.062 C 2.76 26.059 2.767 26.055 2.77 26.053 C 2.808 26.033 2.846 26.015 2.886 25.998 C 2.905 25.99 2.922 25.981 2.941 25.972 C 2.97 25.96 2.999 25.948 3.03 25.936 C 3.048 25.928 3.065 25.921 3.082 25.914 C 3.118 25.9 3.156 25.886 3.194 25.874 C 3.211 25.867 3.229 25.862 3.246 25.855 C 3.289 25.841 3.332 25.828 3.377 25.817 C 3.38 25.817 3.384 25.815 3.389 25.814 C 3.441 25.798 3.494 25.786 3.546 25.776 L 3.549 25.776 C 3.599 25.764 3.649 25.753 3.701 25.745 L 3.727 25.74 C 3.767 25.733 3.806 25.728 3.846 25.722 C 3.87 25.717 3.894 25.714 3.918 25.714 C 3.944 25.71 3.97 25.707 3.996 25.705 C 4.027 25.702 4.06 25.698 4.092 25.697 C 4.123 25.695 4.154 25.693 4.185 25.693 C 4.204 25.691 4.223 25.691 4.241 25.691 C 4.296 25.695 4.351 25.697 4.408 25.697 L 4.484 25.697 C 6.607 25.657 8.317 23.935 8.343 21.809 C 8.345 21.792 8.345 21.778 8.345 21.761 C 8.345 21.715 8.345 21.666 8.341 21.621 C 8.369 19.748 9.896 18.241 11.775 18.241 C 13.654 18.241 15.213 19.779 15.213 21.677 C 15.213 23.575 13.699 25.086 11.822 25.11 C 11.774 25.11 11.722 25.107 11.672 25.107 C 11.658 25.107 11.646 25.107 11.634 25.109 C 9.508 25.128 7.786 26.834 7.738 28.953 L 7.738 29.311 C 7.788 31.43 9.51 33.133 11.634 33.152 L 11.675 33.152 C 11.71 33.152 11.744 33.152 11.779 33.15 C 11.813 33.152 11.848 33.152 11.88 33.152 L 11.92 33.152 C 14.046 33.133 15.768 31.426 15.816 29.308 L 15.816 29.298 C 15.818 29.27 15.818 29.244 15.818 29.217 C 15.818 29.158 15.816 29.101 15.812 29.044 C 15.857 27.186 17.379 25.693 19.248 25.693 C 21.117 25.693 22.683 27.231 22.683 29.129 Z M 16.814 1.232 C 15.492 2.555 15.471 4.687 16.754 6.031 C 16.795 6.069 16.838 6.109 16.879 6.149 C 16.898 6.168 16.917 6.187 16.935 6.207 L 16.942 6.214 C 18.407 7.747 18.395 10.172 16.905 11.687 C 16.897 11.698 16.888 11.706 16.879 11.716 C 16.845 11.751 16.807 11.787 16.771 11.82 C 15.461 13.163 15.471 15.314 16.802 16.645 C 18.133 17.976 20.32 17.986 21.661 16.645 C 22.989 15.318 23.004 13.17 21.699 11.825 C 21.651 11.783 21.606 11.739 21.563 11.692 C 20.077 10.17 20.07 7.743 21.544 6.214 L 21.546 6.214 C 21.561 6.193 21.579 6.176 21.596 6.161 C 21.639 6.118 21.682 6.076 21.727 6.037 C 23.014 4.69 22.995 2.558 21.672 1.232 C 20.331 -0.109 18.155 -0.11 16.812 1.232 Z" fill="url(#g)"/>
  </g>
  <text x="206" y="22" font-family="Massilia, 'DM Sans', 'Outfit', -apple-system, BlinkMacSystemFont, 'Segoe UI', Helvetica, Arial, sans-serif" font-size="18" font-weight="400" fill="url(#shimmer)">disrupt.com</text>
</svg>
